# xmcd
#
# Track frame offsets:
#	150
#	23611
#	39019
#	57907
#	74792
#	92764
#	111916
#	127585
#	142189
#	161265
#	182023
#	198507
#	220488
#	239310
#
# Disc length: 3479
#
# Revision: 1
# Processed by: cddbd v1.5.1PL0 Copyright (c) Steve Scherf et al.
# Submitted via: ExactAudioCopy v0.95a4
# Normalized: r0:TRMNUM
#
DISCID=c20d950e
DTITLE=Jamie Cullum - Twenty Something
DYEAR=2003
DGENRE=Blues
TTITLE0=Jamie Cullum - What A Difference A Day Make
TTITLE1=Jamie Cullum - These Are The Days
TTITLE2=Jamie Cullum - Singin In The Rain
TTITLE3=Jamie Cullum - Twentysomething
TTITLE4=Jamie Cullum - But For Now
TTITLE5=Jamie Cullum - Old Devil Moon
TTITLE6=Jamie Cullum - I Could Have Danced All Night
TTITLE7=Jamie Cullum - Blame It On My Youth
TTITLE8=Jamie Cullum - I Get Kick Out Of You
TTITLE9=Jamie Cullum - All At Sea
TTITLE10=Jamie Cullum - Wind Cries Mary
TTITLE11=Jamie Cullum - Lover, You Should Have Come Over
TTITLE12=Jamie Cullum - It's About Time
TTITLE13=Jamie Cullum - Next Year Baby
EXTD=
EXTT0=
EXTT1=
EXTT2=
EXTT3=
EXTT4=
EXTT5=
EXTT6=
EXTT7=
EXTT8=
EXTT9=
EXTT10=
EXTT11=
EXTT12=
EXTT13=
PLAYORDER=
